<svg xmlns="http://www.w3.org/2000/svg" viewBox="0 0 32 32">
  <rect width="32" height="32" rx="7" fill="#0B2C6B"/>
  <!-- Duck silhouette, facing right, wings swept back — matches logo -->
  <path fill="white" d="
    M 28,10 L 31,9 L 28,12
    M 27,9 C 25,7 22,7 21,9 C 20,11 21,13 23,13 C 24,13 25,12 26,11 C 27,10 27,9 27,9 Z
    M 21,12 C 20,11 19,12 18,13 C 15,14 11,15 7,16 C 5,17 3,18 3,19
             C 3,20 4,21 6,21 C 8,21 10,20 12,19 C 14,18 17,17 20,16
             C 22,15 24,14 24,13 C 23,13 22,12 21,12 Z
    M 7,15 C 9,11 14,10 20,13 C 16,14 11,15 7,15 Z
    M 7,17 C 9,21 13,23 17,22 C 21,21 23,18 22,15 C 20,16 17,18 14,19
            C 11,20 9,20 7,17 Z
    M 2,19 L 0,16 L 4,18 Z
  "/>
</svg>
